int melody[] = {
  NOTE_E4, NOTE_G4, NOTE_E4, NOTE_E4, NOTE_A4, NOTE_E4, NOTE_D4, NOTE_E4,
  NOTE_B4, NOTE_E4, NOTE_E4, NOTE_C5, NOTE_B4, NOTE_G4, NOTE_E4, NOTE_B4,
  NOTE_E5, NOTE_E4, NOTE_D4, NOTE_D4, NOTE_B3, NOTE_FS4, NOTE_E4, NOTE_E4,
  NOTE_G4, NOTE_E4, NOTE_E4, NOTE_A4, NOTE_E4, NOTE_D4, NOTE_E4, NOTE_B4,
  NOTE_E4, NOTE_E4, NOTE_C5, NOTE_B4, NOTE_G4, NOTE_E4, NOTE_B4, NOTE_E5,
  NOTE_E4, NOTE_D4, NOTE_D4, NOTE_B3, NOTE_FS4, NOTE_E4, NOTE_E4, NOTE_G4,
  NOTE_E4, NOTE_E4, NOTE_A4, NOTE_E4, NOTE_D4, NOTE_E4, NOTE_B4, NOTE_E4,
  NOTE_E4, NOTE_C5, NOTE_B4, NOTE_G4, NOTE_E4, NOTE_B4, NOTE_E5, NOTE_E4,
  NOTE_D4, NOTE_D4, NOTE_B3, NOTE_FS4, NOTE_E4, NOTE_E4, NOTE_G4, NOTE_E4,
  NOTE_E4, NOTE_A4, NOTE_E4, NOTE_D4, NOTE_E4, NOTE_B4, NOTE_E4, NOTE_E4,
  NOTE_C5, NOTE_B4, NOTE_G4, NOTE_E4, NOTE_B4, NOTE_E5, NOTE_E4, NOTE_D4,
  NOTE_D4, NOTE_B3, NOTE_FS4, NOTE_E4, NOTE_E4, NOTE_G4, NOTE_E4, NOTE_E4,
  NOTE_A4, NOTE_E4, NOTE_D4, NOTE_E4, NOTE_B4, NOTE_E4, NOTE_E4, NOTE_C5,
  NOTE_B4, NOTE_G4, NOTE_E4, NOTE_B4, NOTE_E5, NOTE_E4, NOTE_D4, NOTE_D4,
  NOTE_B3, NOTE_FS4, NOTE_E4, NOTE_E4, NOTE_G4, NOTE_E4, NOTE_E4, NOTE_A4,
  NOTE_E4, NOTE_D4, NOTE_E4, NOTE_B4, NOTE_E4, NOTE_E4, NOTE_C5, NOTE_B4,
  NOTE_G4, NOTE_E4, NOTE_B4, NOTE_E5, NOTE_E4, NOTE_D4, NOTE_D4, NOTE_B3,
  NOTE_FS4, NOTE_E4, NOTE_G4, NOTE_D4, NOTE_G4, NOTE_D4, NOTE_G4, NOTE_D4,
  NOTE_G4, NOTE_D4, NOTE_G4, NOTE_D4, NOTE_G4, NOTE_D4, NOTE_G4, NOTE_D4,
  NOTE_G4, NOTE_D4, NOTE_G4, NOTE_D4, NOTE_G4, NOTE_D4, NOTE_G4, NOTE_D4,
  NOTE_G4, NOTE_D4, NOTE_G4, NOTE_D4, NOTE_G4, NOTE_D4, NOTE_G4, NOTE_D4,
  NOTE_G4, NOTE_D4, NOTE_G4, NOTE_D4, NOTE_G4, NOTE_D4, NOTE_G4, NOTE_D4,
  NOTE_G4, NOTE_D4, NOTE_G4, NOTE_D4, NOTE_G4, NOTE_D4, NOTE_G4, NOTE_D4,
  NOTE_G4, NOTE_D4, NOTE_G4, NOTE_D4, NOTE_G4, NOTE_D4, NOTE_G4, NOTE_D4,
  NOTE_G4, NOTE_D4, NOTE_G4, NOTE_D4, NOTE_G4, NOTE_D4, NOTE_G4, NOTE_D4,
  NOTE_G4, NOTE_D4, NOTE_G4, NOTE_D4, NOTE_G4, NOTE_D4, NOTE_G4, NOTE_D4,
  NOTE_G4, NOTE_D4, NOTE_G4, NOTE_D4, NOTE_G4, NOTE_D4, NOTE_G4, NOTE_D4,
  NOTE_G4, NOTE_D4, NOTE_G4, NOTE_D4, NOTE_G4, NOTE_D4, NOTE_G4, NOTE_D4,
  NOTE_G4, NOTE_D4, NOTE_G4, NOTE_D4, NOTE_G4, NOTE_D4, NOTE_G4, NOTE_D4,
  NOTE_G4, NOTE_D4, NOTE_G4, NOTE_D4, NOTE_G4, NOTE_D4, NOTE_G4, NOTE_D4,
  NOTE_G4, NOTE_D4, NOTE_G4, NOTE_D4, NOTE_G4, NOTE_D4, NOTE_E4, NOTE_G4,
  NOTE_E4, NOTE_E4, NOTE_A4, NOTE_E4, NOTE_D4, NOTE_E4, NOTE_B4, NOTE_E4,
};

// note durations: 4 = quarter note, 8 = eighth note, etc.:
int noteDurations[] = {
  4, 4, 8, 16, 8, 8, 8, 4,
  4, 8, 16, 8, 8, 8, 8, 8,
  8, 16, 8, 16, 8, 8, 8, 4,
  4, 8, 16, 8, 8, 8, 4, 4,
  8, 16, 8, 8, 8, 8, 8, 8,
  16, 8, 16, 8, 8, 8, 4, 4,
  8, 16, 8, 8, 8, 4, 4, 8,
  16, 8, 8, 8, 8, 8, 8, 16,
  8, 16, 8, 8, 4, 4, 4, 8,
  16, 8, 8, 8, 4, 4, 8, 16,
  8, 8, 8, 8, 8, 8, 16, 8,
  16, 8, 8, 4, 4, 4, 8, 16,
  8, 8, 8, 4, 4, 8, 16, 8,
  8, 8, 8, 8, 8, 16, 8, 16,
  8, 8, 4, 4, 4, 8, 16, 8,
  8, 8, 4, 4, 8, 16, 8, 8,
  8, 8, 8, 8, 16, 8, 16, 8,
  8, 4, 4, 4, 4, 8, 8, 8,
  4, 4, 4, 8, 8, 8, 4, 4,
  4, 8, 8, 8, 4, 4, 4, 8,
  8, 8, 4, 4, 4, 8, 8, 8,
  4, 4, 4, 8, 8, 8, 4, 4,
  4, 8, 8, 8, 4, 4, 4, 8,
  8, 8, 4, 4, 4, 8, 8, 8,
  4, 4, 4, 8, 8, 8, 4, 4,
  4, 8, 8, 8, 4, 4, 4, 8,
  8, 8, 4, 4, 4, 8, 8, 8,
  4, 4, 4, 8, 8, 8, 4, 4,
  4, 8, 8, 8, 4, 4, 4, 8,
  8, 8, 4, 4, 4, 8, 8, 8,
  4, 4, 4, 8, 8, 8, 4, 4,
  8, 16, 8, 8, 8, 4, 4, 8,
};
